<?xml version="1.0" encoding="iso-8859-1"?>
<!-- Generator: Adobe Illustrator 19.0.0, SVG Export Plug-In . SVG Version: 6.00 Build 0)  -->
<svg version="1.1" id="Capa_1" xmlns="http://www.w3.org/2000/svg" xmlns:xlink="http://www.w3.org/1999/xlink" x="0px" y="0px"
	 viewBox="0 0 440 440" style="enable-background:new 0 0 440 440;" xml:space="preserve">
<polygon style="fill:#ED664C;" points="283.05,10 267.05,31 283.05,52 220.05,52 220.05,10 "/>
<g>
	<polygon style="fill:#FDC75B;" points="303.15,204 219.05,132 134.45,204.1 118.15,217.9 93.25,189 219.05,81.3 344.85,189 
		319.45,217.9 	"/>
	<path style="fill:#FDC75B;" d="M423.05,265.9V430h-119.9V245.9h99.9C414.15,245.9,423.05,254.9,423.05,265.9z"/>
</g>
<polygon style="fill:#ED664C;" points="303.15,245.9 303.15,430 253.45,430 253.45,338.7 184.65,338.7 184.65,430 134.45,430 
	134.45,245.9 134.45,204.1 219.05,132 303.15,204 "/>
<g>
	<rect x="184.65" y="338.7" style="fill:#FDC75B;" width="68.8" height="91.3"/>
	<path style="fill:#FDC75B;" d="M134.45,245.9V430H16.85V265.9c0-11,9-20,20-20H134.45z"/>
</g>
<path d="M403.05,236h-90.1v-10.3c4,3.4,10.4,2.9,13.9-1.2l25.4-29c1.8-2,2.7-4.6,2.5-7.3s-1.5-5.1-3.5-6.9L229.95,77.6V62h53.2
	c3.8,0,7.3-2.2,9-5.6s1.3-7.5-1-10.5L279.65,31l11.4-15c2.3-3,2.7-7.1,1-10.5s-5.2-5.5-9-5.5h-63c-5.5,0-10.2,4.4-10.2,10v42v23.8
	L86.65,181.4c-2,1.7-3.2,4.2-3.4,6.8s0.7,5.3,2.4,7.3l24.9,29c2,2.3,4.5,3.5,7.3,3.5c2.2,0,5-0.7,6-2.2V236h-87
	c-16.6,0-29.9,13.3-29.9,29.9V430c0,5.5,4.3,10,9.9,10h406.3c5.5,0,9.9-4.4,9.9-10V265.9C432.95,249.3,419.65,236,403.05,236z
	 M26.95,265.9c0-5.5,4.3-9.9,9.9-9.9h87.1v164h-97V265.9z M127.95,196.4l-8.7,7.4l-11.9-13.8l111.7-95.6l111.6,95.6l-12.2,13.9
	l-92.9-79.5c-1.9-1.6-4.2-2.4-6.5-2.4c-2.3,0-4.6,0.8-6.5,2.4L127.95,196.4L127.95,196.4z M292.95,420h-30v-81.3
	c0-5.5-4-9.7-9.5-9.7h-68.8c-5.5,0-9.7,4.2-9.7,9.7V420h-31V208.7l74.7-63.5l74.3,63.5V420z M242.95,420h-48v-71h48V420z
	 M312.95,256h90.1c5.5,0,9.9,4.4,9.9,9.9V420h-100V256z M259.15,37l3.8,5h-33V20h33l-3.8,4.9C256.45,28.5,256.45,33.5,259.15,37z"/>
<path d="M174.25,278c0,5.5,4.5,10,10,10h69.2c5.5,0,10-4.5,10-10s-4.5-10-10-10h-69.2C178.65,268,174.25,272.5,174.25,278z"/>
<path d="M54.95,283.8c-5.5,0-10,4.5-10,10V311c0,5.5,4.5,10,10,10s10-4.5,10-10v-17.2C64.95,288.3,60.45,283.8,54.95,283.8z"/>
<path d="M95.95,283.8c-5.5,0-10,4.5-10,10V311c0,5.5,4.5,10,10,10s10-4.5,10-10v-17.2C105.95,288.3,101.45,283.8,95.95,283.8z"/>
<path d="M54.95,350.8c-5.5,0-10,4.5-10,10V378c0,5.5,4.5,10,10,10s10-4.5,10-10v-17.2C64.95,355.3,60.45,350.8,54.95,350.8z"/>
<path d="M95.95,350.8c-5.5,0-10,4.5-10,10V378c0,5.5,4.5,10,10,10s10-4.5,10-10v-17.2C105.95,355.3,101.45,350.8,95.95,350.8z"/>
<path d="M343.95,283.8c-5.5,0-10,4.5-10,10V311c0,5.5,4.5,10,10,10s10-4.5,10-10v-17.2C353.95,288.3,349.45,283.8,343.95,283.8z"/>
<path d="M383.95,283.8c-5.5,0-10,4.5-10,10V311c0,5.5,4.5,10,10,10s10-4.5,10-10v-17.2C393.95,288.3,389.45,283.8,383.95,283.8z"/>
<path d="M343.95,350.8c-5.5,0-10,4.5-10,10V378c0,5.5,4.5,10,10,10s10-4.5,10-10v-17.2C353.95,355.3,349.45,350.8,343.95,350.8z"/>
<path d="M383.95,350.8c-5.5,0-10,4.5-10,10V378c0,5.5,4.5,10,10,10s10-4.5,10-10v-17.2C393.95,355.3,389.45,350.8,383.95,350.8z"/>
<g>
</g>
<g>
</g>
<g>
</g>
<g>
</g>
<g>
</g>
<g>
</g>
<g>
</g>
<g>
</g>
<g>
</g>
<g>
</g>
<g>
</g>
<g>
</g>
<g>
</g>
<g>
</g>
<g>
</g>
</svg>
